<svg width="194" height="83" viewBox="0 0 194 83" fill="none" xmlns="http://www.w3.org/2000/svg">
<g id="konkovdesign_logo_ve.svg">
<path id="&#208;&#164;&#208;&#184;&#208;&#179;&#209;&#131;&#209;&#128;&#208;&#176; 1" fill-rule="evenodd" clip-rule="evenodd" d="M142.241 66.3924V61.1396L147.211 66.3924H148.399V59.791H147.287V65.0533L142.326 59.791H141.128V66.3922H142.241V66.3924ZM124.493 60.5697C124.832 60.5649 125.167 60.6407 125.471 60.7908C125.774 60.9408 126.038 61.1609 126.24 61.4329H127.451C127.195 60.8668 126.778 60.3883 126.252 60.0566C125.726 59.7249 125.115 59.5546 124.493 59.5666C122.557 59.5666 121.098 61.0359 121.098 62.9915C121.098 64.9472 122.577 66.4165 124.513 66.4165C126.3 66.4165 127.68 64.977 127.68 62.783H124.245V63.7867H126.509C126.28 64.7695 125.576 65.4148 124.493 65.4148C123.172 65.4148 122.19 64.3823 122.19 62.9925C122.19 61.6027 123.172 60.5697 124.493 60.5697ZM51.353 66.3924C51.7974 66.397 52.2407 66.3479 52.6733 66.2463C53.0421 66.16 53.3953 66.0168 53.72 65.8219C54.0129 65.6445 54.2704 65.4143 54.4792 65.143C54.6875 64.8679 54.8455 64.5583 54.946 64.2282C55.0562 63.8629 55.1102 63.4829 55.1063 63.1013C55.11 62.7182 55.0559 62.3367 54.946 61.9696C54.8461 61.6379 54.6881 61.3266 54.4792 61.0502C54.2696 60.7782 54.0124 60.5466 53.72 60.3665C53.3961 60.1687 53.0428 60.0239 52.6733 59.9374C52.2407 59.8358 51.7974 59.7867 51.353 59.7912H47.6094V66.3925L51.353 66.3924ZM48.8162 65.4305V60.753H51.4001C51.6973 60.7495 51.9937 60.7843 52.2819 60.8567C52.5265 60.9187 52.7592 61.0207 52.9705 61.1585C53.1652 61.2872 53.3332 61.4521 53.4656 61.6442C53.6013 61.8441 53.7018 62.0658 53.7627 62.2996C53.8947 62.8258 53.8947 63.3766 53.7627 63.9028C53.7031 64.1341 53.6025 64.3529 53.4656 64.5487C53.3312 64.7366 53.1634 64.898 52.9705 65.025C52.7592 65.1629 52.5265 65.2649 52.2819 65.3267C51.9937 65.3993 51.6973 65.4342 51.4001 65.4305H48.8162ZM74.4389 66.3924V65.4494H69.3558V63.4784H73.8541V62.5453H69.3558V60.7346H74.3728V59.791H68.1675V66.3922H74.4389V66.3924ZM87.1605 65.3173C87.3642 65.589 87.6249 65.8128 87.9244 65.9728C88.278 66.1596 88.658 66.2916 89.0513 66.3642C89.5409 66.457 90.0384 66.5012 90.5367 66.4962C91.0599 66.5021 91.5825 66.4579 92.0973 66.3642C92.4924 66.2956 92.8732 66.1618 93.2243 65.9681C93.5022 65.8147 93.7372 65.5942 93.9081 65.3267C94.0649 65.065 94.145 64.7643 94.1391 64.4592C94.1536 64.1183 94.0559 63.782 93.8609 63.502C93.6447 63.2319 93.3548 63.0304 93.0263 62.922C92.5779 62.7665 92.1124 62.6652 91.64 62.6203L89.8765 62.4882C89.5601 62.4563 89.2465 62.4012 88.9382 62.3233C88.7363 62.278 88.5485 62.1841 88.3912 62.0498C88.3287 61.9879 88.2799 61.9134 88.2482 61.8314C88.2164 61.7493 88.2024 61.6614 88.2069 61.5735C88.2057 61.4327 88.2504 61.2954 88.3342 61.1822C88.4375 61.0517 88.5721 60.9495 88.7256 60.8851C88.9409 60.7922 89.1677 60.7288 89.3999 60.6965C89.7199 60.6493 90.043 60.6272 90.3665 60.6306C91.1021 60.6306 91.6585 60.7327 92.0357 60.937C92.2149 61.0288 92.3719 61.1587 92.4957 61.3175C92.6195 61.4763 92.7071 61.6602 92.7524 61.8564L93.9784 61.6773C93.8976 61.2629 93.6977 60.8811 93.4032 60.5787C93.0719 60.2621 92.6666 60.0336 92.2243 59.9138C91.6255 59.7497 91.0061 59.6735 90.3854 59.6875C89.8944 59.6812 89.4043 59.7286 88.9236 59.8289C88.5501 59.9052 88.1906 60.0388 87.8579 60.225C87.5912 60.3731 87.3671 60.5875 87.2073 60.8474C87.0609 61.0992 86.9859 61.3861 86.9904 61.6773C86.984 61.9318 87.039 62.1841 87.1507 62.4128C87.2626 62.6261 87.4264 62.8077 87.6269 62.941C87.8685 63.0997 88.1345 63.2177 88.4144 63.2902C88.7667 63.3854 89.1263 63.4517 89.4894 63.4882L91.2153 63.6108C91.5477 63.6414 91.8772 63.6982 92.2007 63.7806C92.4053 63.8254 92.5931 63.9267 92.743 64.0729C92.8609 64.212 92.9216 64.3907 92.9127 64.5728C92.9136 64.7208 92.8655 64.865 92.7759 64.9829C92.6636 65.1214 92.5175 65.2286 92.3516 65.2942C92.1161 65.3909 91.8687 65.4559 91.616 65.4875C91.2644 65.535 90.9099 65.557 90.5551 65.5535C90.1181 65.5615 89.6819 65.5108 89.2584 65.4026C88.9394 65.3249 88.6445 65.1694 88.4003 64.95C88.1886 64.7471 88.0452 64.4835 87.99 64.1955L86.7547 64.3842C86.8208 64.7209 86.9593 65.0393 87.1605 65.3173ZM108.313 66.3924V59.791H107.106V66.3922H108.313L108.313 66.3924ZM181.91 19.2126L171.182 43.9372L160.357 19.2126H155.706L169.153 49.265H173L186.096 19.2126H181.91ZM151.852 44.935C154.751 42.0633 156.2 38.4805 156.2 34.1866C156.2 29.9201 154.772 26.3441 151.914 23.4587C149.056 20.5732 145.466 19.1306 141.145 19.1306C136.878 19.1306 133.302 20.5595 130.416 23.4173C127.53 26.2752 126.088 29.865 126.089 34.187C126.089 38.4811 127.511 42.0639 130.355 44.9354C133.199 47.8069 136.796 49.2428 141.145 49.243C145.384 49.2427 148.953 47.8068 151.852 44.935ZM133.288 42.3095C131.223 40.1492 130.191 37.4416 130.191 34.1866C130.191 30.9867 131.21 28.2928 133.247 26.1048C135.284 23.9168 137.917 22.8228 141.145 22.8228C144.289 22.8228 146.901 23.91 148.98 26.0842C151.058 28.2586 152.098 30.9594 152.098 34.1866C152.098 37.3596 151.072 40.0467 149.021 42.2479C146.969 44.4491 144.344 45.55 141.145 45.5504C137.971 45.5504 135.352 44.4701 133.288 42.3095ZM98.7457 34.2355L117.367 19.2029H123.283L104.565 34.2355M98.7457 34.2355L117.367 49.2681H123.283L104.565 34.2355M92.4605 19.2126V42.2159L74.3201 19.2126H69.3303V49.2351H73.2628V24.0332L93.4753 49.2527H96.393V19.2126H92.4605ZM60.3953 44.935C63.2937 42.0633 64.7432 38.4806 64.7439 34.187C64.7439 29.9205 63.315 26.3445 60.4572 23.459C57.5993 20.5736 54.0096 19.1308 49.6879 19.1306C45.4213 19.1306 41.8453 20.5595 38.9599 23.4173C36.0745 26.2752 34.6318 29.865 34.6319 34.187C34.6319 38.4811 36.0541 42.0639 38.8984 44.9354C41.7428 47.8069 45.3393 49.2428 49.6879 49.243C53.9269 49.2427 57.496 47.8068 60.3953 44.935ZM41.8317 42.3095C39.7663 40.1492 38.7339 37.4416 38.7343 34.1866C38.7343 30.9867 39.7531 28.2928 41.7906 26.1048C43.8281 23.9168 46.4606 22.8228 49.6879 22.8228C52.8327 22.8228 55.4446 23.91 57.5236 26.0842C59.6025 28.2585 60.6418 30.9594 60.6414 34.187C60.6414 37.36 59.6158 40.047 57.5646 42.2483C55.5134 44.4495 52.8878 45.5503 49.6879 45.5508C46.5153 45.5505 43.8965 44.4701 41.8317 42.3095ZM7.28918 34.2355L25.9102 19.2029H31.8263L13.1083 34.2355M7.28918 34.2355L25.9102 49.2681H31.8263L13.1083 34.2355" fill="#030303"/>
</g>
</svg>
