<svg width="19" height="16" viewBox="0 0 19 16" fill="none" xmlns="http://www.w3.org/2000/svg">
<g id="photo.svg" clip-path="url(#clip0_1_52)">
<path id="Vector" fill-rule="evenodd" clip-rule="evenodd" d="M1.41285 6.77009C6.4807 4.56211 9.86008 3.10646 11.5509 2.40317C16.3787 0.395128 17.3819 0.0463091 18.0358 0.0347908C18.1796 0.0322575 18.5011 0.0678976 18.7094 0.236907C18.8853 0.379614 18.9337 0.57239 18.9568 0.707693C18.98 0.842996 19.0088 1.15122 18.9859 1.39205C18.7242 4.14091 17.5923 10.8117 17.0163 13.8904C16.7726 15.1932 16.2928 15.63 15.8283 15.6728C14.8187 15.7657 14.0522 15.0056 13.0743 14.3646C11.5443 13.3617 10.68 12.7373 9.19478 11.7586C7.47842 10.6275 8.59107 10.0059 9.56923 8.98994C9.82521 8.72406 14.2732 4.67822 14.3593 4.3112C14.3701 4.26531 14.3801 4.0942 14.2784 4.00385C14.1767 3.91351 14.0267 3.94441 13.9185 3.96897C13.7651 4.0038 11.3208 5.61937 6.58574 8.81567C5.89195 9.29208 5.26353 9.52421 4.70049 9.51204C4.07978 9.49863 2.88579 9.16109 1.99817 8.87256C0.909487 8.51866 0.0442183 8.33156 0.119564 7.73055C0.158808 7.41751 0.589902 7.09735 1.41285 6.77009Z" fill="#030303"/>
</g>
<defs>
<clipPath id="clip0_1_52">
<rect width="18.9985" height="15.77" fill="white" transform="translate(0.000762939)"/>
</clipPath>
</defs>
</svg>
