<svg width="30" height="30" viewBox="0 0 30 30" fill="none" xmlns="http://www.w3.org/2000/svg">
<g id="whatsapp.svg">
<path id="Vector" d="M22 7.90006C21.0836 6.97684 19.9929 6.24503 18.7913 5.74716C17.5895 5.2493 16.3007 4.99535 15 5.00006C13.2611 5.00176 11.5531 5.46031 10.0471 6.32979C8.54118 7.19926 7.2901 8.44915 6.41918 9.95426C5.54825 11.4594 5.08807 13.167 5.0847 14.9058C5.08134 16.6448 5.53491 18.3541 6.4 19.8626L5 25.0001L10.25 23.6251C11.6997 24.4316 13.3286 24.8615 14.9875 24.8751C17.6246 24.8752 20.155 23.8336 22.0278 21.9771C23.9006 20.1207 24.9644 17.5996 24.9875 14.9626C24.9788 13.6467 24.7103 12.3455 24.1976 11.1336C23.685 9.92164 22.9381 8.82281 22 7.90006ZM15 23.1626C13.5221 23.1636 12.0713 22.7663 10.8 22.0126L10.5 21.8251L7.3875 22.6501L8.2125 19.6126L8.0125 19.3001C6.94906 17.5835 6.55218 15.5363 6.89703 13.5466C7.24188 11.5569 8.30451 9.76276 9.88363 8.5041C11.4627 7.24543 13.4486 6.60964 15.4651 6.71718C17.4816 6.8247 19.3888 7.66809 20.825 9.08756C22.395 10.6228 23.2937 12.717 23.325 14.9126C23.3053 17.1075 22.4194 19.2057 20.8603 20.7508C19.3013 22.2958 17.195 23.1627 15 23.1626ZM19.5125 16.9876C19.2625 16.8626 18.05 16.2626 17.825 16.1876C17.6 16.1126 17.425 16.0626 17.2625 16.3126C17.018 16.6477 16.755 16.969 16.475 17.2751C16.3375 17.4501 16.1875 17.4626 15.9375 17.2751C14.5121 16.7118 13.3246 15.6743 12.575 14.3376C12.3125 13.9001 12.825 13.9251 13.3 12.9876C13.3351 12.92 13.3534 12.845 13.3534 12.7688C13.3534 12.6927 13.3351 12.6177 13.3 12.5501C13.3 12.4251 12.7375 11.2001 12.5375 10.7126C12.3375 10.2251 12.1375 10.3001 11.975 10.2876H11.4875C11.3612 10.2895 11.2367 10.3184 11.1225 10.3723C11.0082 10.4262 10.9068 10.5038 10.825 10.6001C10.5445 10.8728 10.3258 11.2025 10.1834 11.5669C10.0411 11.9313 9.97859 12.3219 10 12.7126C10.0784 13.6477 10.4305 14.539 11.0125 15.2751C12.0778 16.8698 13.5376 18.1617 15.25 19.0251C16.1481 19.5493 17.1919 19.7686 18.225 19.6501C18.569 19.5818 18.8949 19.442 19.1813 19.2395C19.4678 19.0371 19.7084 18.7766 19.8875 18.4751C20.0535 18.1071 20.1058 17.698 20.0375 17.3001C19.925 17.1751 19.7625 17.1126 19.5125 16.9876Z" fill="black"/>
</g>
</svg>
